HIERARCHY
ROOT Hips
{
	OFFSET	0.00	0.00	0.00
	CHANNELS 6 Xposition Yposition Zposition Zrotation Xrotation Yrotation
	JOINT LeftUpLeg
	{
		OFFSET	 0.126116	-0.014019	-0.065224
		CHANNELS 3 Zrotation Xrotation Yrotation
		JOINT LeftLeg
		{
			OFFSET	 0.000000	 0.000000	 0.569914
			CHANNELS 3 Zrotation Xrotation Yrotation
			JOINT LeftFoot
			{
				OFFSET	 0.000000	 0.000000	 0.544423
				CHANNELS 3 Zrotation Xrotation Yrotation
				JOINT LeftToeBase
				{
					OFFSET	 0.000000	 0.000000	 0.207117
					CHANNELS 3 Zrotation Xrotation Yrotation
					End Site
					{
						OFFSET	 0.000000	 0.000000	 0.207117
					}
				}
			}
		}
	}
	JOINT RightUpLeg
	{
		OFFSET	-0.124023	-0.008373	-0.065224
		CHANNELS 3 Zrotation Xrotation Yrotation
		JOINT RightLeg
		{
			OFFSET	 0.000000	 0.000000	 0.570047
			CHANNELS 3 Zrotation Xrotation Yrotation
			JOINT RightFoot
			{
				OFFSET	 0.000000	 0.000000	 0.544354
				CHANNELS 3 Zrotation Xrotation Yrotation
				JOINT RightToeBase
				{
					OFFSET	 0.000000	 0.000000	 0.207540
					CHANNELS 3 Zrotation Xrotation Yrotation
					End Site
					{
						OFFSET	 0.000000	 0.000000	 0.207540
					}
				}
			}
		}
	}
	JOINT Spine
	{
		OFFSET	 0.000184	-0.007763	 0.117403
		CHANNELS 3 Zrotation Xrotation Yrotation
		JOINT Spine1
		{
			OFFSET	 0.000000	 0.000000	 0.137269
			CHANNELS 3 Zrotation Xrotation Yrotation
			JOINT Spine2
			{
				OFFSET	 0.000000	 0.000000	 0.156879
				CHANNELS 3 Zrotation Xrotation Yrotation
				JOINT LeftShoulder
				{
					OFFSET	 0.080501	-0.002496	 0.160144
					CHANNELS 3 Zrotation Xrotation Yrotation
					JOINT LeftArm
					{
						OFFSET	 0.000000	 0.000000	 0.164363
						CHANNELS 3 Zrotation Xrotation Yrotation
						JOINT LeftForeArm
						{
							OFFSET	 0.000000	 0.000000	 0.364576
							CHANNELS 3 Zrotation Xrotation Yrotation
							JOINT LeftHand
							{
								OFFSET	 0.000000	 0.000000	 0.360812
								CHANNELS 3 Zrotation Xrotation Yrotation
								JOINT LeftHandIndex1
								{
									OFFSET	 0.000000	 0.000000	 0.086006
									CHANNELS 3 Zrotation Xrotation Yrotation
									JOINT LeftHandIndex2
									{
										OFFSET	 0.000000	 0.000000	 0.047236
										CHANNELS 3 Zrotation Xrotation Yrotation
										JOINT LeftHandIndex3
										{
											OFFSET	-0.004284	-0.000551	 0.038166
											CHANNELS 3 Zrotation Xrotation Yrotation
											End Site
											{
												OFFSET	-0.004284	-0.000551	 0.038166
											}
										}
									}
								}
							}
						}
					}
				}
				JOINT Neck
				{
					OFFSET	 0.000000	 0.000000	 0.176489
					CHANNELS 3 Zrotation Xrotation Yrotation
					JOINT Head
					{
						OFFSET	 0.000000	-0.001747	 0.077940
						CHANNELS 3 Zrotation Xrotation Yrotation
						End Site
						{
							OFFSET	 0.000000	-0.001747	 0.077940
						}
					}
				}
				JOINT RightShoulder
				{
					OFFSET	-0.080363	 0.000306	 0.159706
					CHANNELS 3 Zrotation Xrotation Yrotation
					JOINT RightArm
					{
						OFFSET	 0.000000	 0.000000	 0.164196
						CHANNELS 3 Zrotation Xrotation Yrotation
						JOINT RightForeArm
						{
							OFFSET	 0.000000	 0.000000	 0.365611
							CHANNELS 3 Zrotation Xrotation Yrotation
							JOINT RightHand
							{
								OFFSET	 0.000000	 0.000000	 0.360648
								CHANNELS 3 Zrotation Xrotation Yrotation
								JOINT RightHandIndex1
								{
									OFFSET	 0.000000	 0.000000	 0.069977
									CHANNELS 3 Zrotation Xrotation Yrotation
									JOINT RightHandIndex2
									{
										OFFSET	 0.000000	 0.000000	 0.052305
										CHANNELS 3 Zrotation Xrotation Yrotation
										JOINT RightHandIndex3
										{
											OFFSET	 0.009002	-0.000782	 0.042196
											CHANNELS 3 Zrotation Xrotation Yrotation
											End Site
											{
												OFFSET	 0.009002	-0.000782	 0.042196
											}
										}
									}
								}
							}
						}
					}
				}
			}
		}
	}
}
MOTION
Frames:    13
Frame Time: 0.03333334
-7.102146	-19.880290	-0.169352	-48.165450	 2.017470	 0.441981	 2.325169	-34.188120	 172.454500	-5.431120	-66.998960	-5.751079	 176.665900	 87.305650	-179.331300	-2.337168	 36.060380	-0.174645	 0.125211	-35.678280	-177.550800	 1.559699	-71.084880	 4.339221	-177.422500	 85.781600	 179.190000	 2.405648	 20.814630	-0.156891	 0.284625	 14.315520	 1.138927	 1.063376	 7.468985	-1.971242	 1.590282	 4.548188	 0.042117	-130.034700	 89.473630	-138.373200	 48.006710	 61.184350	-76.613520	-13.136160	-2.343517	-19.410120	 1.202103	-2.233698	-5.358380	-3.812334	 37.924440	-2.927599	-2.450526	 36.184240	 0.754587	-1.378229	 35.397820	-2.634230	 1.697511	 2.358429	-3.103164	 1.064577	 7.730331	 3.193622	 94.127370	 85.988590	 171.210700	-54.058270	 70.711200	 73.221220	-6.552775	-12.276430	 20.719060	-27.548030	-3.211330	 9.537330	 6.437017	 35.671460	-0.771858	 2.830251	 35.756010	-7.813440	-2.350882	 35.473990	 5.254307
-7.095418	-19.880650	-0.147356	-49.879040	 4.858135	-0.112641	 3.013103	-35.426550	 173.162200	-4.308481	-63.848680	-3.969364	 173.220300	 88.652590	-175.368700	-2.357371	 33.465210	-0.112490	 1.228017	-37.233890	-177.249000	 0.255209	-67.608000	 3.748575	-174.846200	 87.198370	 176.644600	 2.406746	 19.753530	-0.177992	 0.230964	 14.393190	 1.165853	 1.130294	 7.140152	-1.821321	 1.886138	 4.173376	 0.056138	-120.712000	 89.344490	-147.741100	 44.627040	 60.908450	-74.692150	-13.461120	-2.333333	-18.010930	 1.478707	-2.261820	-5.353890	-3.812334	 37.924440	-2.927599	-2.450526	 36.184240	 0.754587	-1.378229	 35.397820	-2.634230	 2.027991	 2.030469	-2.921750	 1.353633	 7.356424	 4.267273	 94.412950	 86.061150	 170.763200	-53.956080	 71.558840	 72.448940	-6.496253	-11.810030	 19.599300	-27.824050	-3.218765	 9.524637	 6.437017	 35.671460	-0.771858	 2.830251	 35.756010	-7.813440	-2.350882	 35.473990	 5.254307
-7.091277	-19.882260	-0.131508	-51.336350	 6.644857	-0.623536	 4.013234	-35.666950	 173.898300	-4.098419	-61.266040	-2.919127	 149.687100	 89.676150	-151.466300	-2.367183	 31.979130	-0.078200	 1.892861	-38.276070	-176.676100	-1.742616	-65.333890	 2.251037	-170.179400	 88.455410	 171.432000	 2.407115	 19.239510	-0.188156	 0.274530	 14.966490	 1.397815	 1.251832	 7.208363	-1.659108	 2.096693	 3.994101	 0.065691	-118.246800	 89.301150	-150.249100	 42.150440	 60.867410	-74.391660	-13.584220	-2.506157	-16.672250	 2.416619	-2.297655	-5.342380	-3.812334	 37.924440	-2.927599	-2.450526	 36.184240	 0.754587	-1.378229	 35.397820	-2.634230	 2.262563	 1.862630	-2.794350	 1.545791	 7.163800	 4.708693	 94.571980	 86.116820	 170.547200	-53.374080	 72.513500	 71.185980	-6.840453	-11.325310	 18.104700	-28.593790	-3.232139	 9.494722	 6.437017	 35.671460	-0.771858	 2.830251	 35.756010	-7.813440	-2.350882	 35.473990	 5.254307
-7.090068	-19.882750	-0.119455	-51.422370	 8.041603	-0.679967	 4.459723	-36.179050	 174.118300	-3.443709	-59.233910	-1.923678	 25.943150	 89.635770	-27.259320	-2.368978	 31.684970	-0.071508	 1.376715	-38.537660	-176.579600	-2.293934	-63.134880	 1.280076	-162.204800	 89.143620	 163.057300	 2.406852	 19.612650	-0.180778	-0.084717	 15.181300	 1.247835	 0.975717	 7.401099	-1.781155	 2.077799	 4.041505	 0.064236	-120.870300	 89.396720	-147.845900	 40.815300	 61.182080	-75.452960	-14.072720	-2.629817	-15.491890	 3.266312	-2.332440	-5.329365	-3.812334	 37.924440	-2.927599	-2.450526	 36.184240	 0.754587	-1.378229	 35.397820	-2.634230	 2.130360	 2.023110	-2.732034	 1.682932	 7.082520	 4.424882	 94.613550	 86.084880	 170.407500	-51.385430	 73.944750	 68.176320	-7.192712	-10.694900	 16.221020	-29.712800	-3.249753	 9.450899	 6.437017	 35.671460	-0.771858	 2.830251	 35.756010	-7.813440	-2.350882	 35.473990	 5.254307
-7.092417	-19.884000	-0.111819	-50.896950	 8.814886	-0.674331	 4.397069	-36.269190	 174.115200	-2.768542	-58.111160	-1.344255	 13.471380	 89.317000	-14.474140	-2.371272	 31.298470	-0.062774	 0.849315	-38.392160	-176.689800	-1.337841	-61.888970	 1.713721	-156.342600	 89.359890	 157.459800	 2.405192	 21.166250	-0.149855	-0.445586	 15.198690	 1.259140	 0.669652	 7.425833	-2.050083	 1.975575	 4.041666	 0.061074	-141.732800	 89.627270	-127.141500	 41.378040	 61.096070	-77.333890	-14.371140	-2.691975	-15.911790	 3.331254	-2.322337	-5.330674	-3.812334	 37.924440	-2.927599	-2.450526	 36.184240	 0.754587	-1.378229	 35.397820	-2.634230	 1.893153	 1.998030	-2.985983	 1.730875	 7.116666	 4.039392	 94.261310	 85.822050	 170.647200	-48.481990	 75.503200	 64.166660	-7.130396	-10.309890	 14.984990	-30.671110	-3.260842	 9.413723	 6.437017	 35.671460	-0.771858	 2.830251	 35.756010	-7.813440	-2.350882	 35.473990	 5.254307
-7.097613	-19.886620	-0.106835	-50.194870	 9.304586	-0.721645	 4.164571	-36.228210	 174.161300	-2.258366	-57.251270	-1.049116	 9.995745	 89.061010	-10.834780	-2.374978	 30.644800	-0.048115	 0.810181	-38.165460	-176.848700	-0.098608	-61.132160	 2.759134	-154.075300	 89.417850	 155.800000	 2.400121	 23.845490	-0.095583	-0.746986	 14.896480	 1.424659	 0.400994	 7.305274	-2.182841	 1.875345	 3.923478	 0.059911	 173.111800	 89.722340	-82.124620	 43.827730	 60.578760	-79.942820	-14.241930	-2.717617	-17.616620	 2.829290	-2.274869	-5.342718	-3.812334	 37.924440	-2.927599	-2.450526	 36.184240	 0.754587	-1.378229	 35.397820	-2.634230	 1.671281	 1.918236	-3.164935	 1.777531	 6.981862	 3.517777	 93.986830	 85.603990	 170.839500	-46.463760	 76.544910	 60.859780	-6.969483	-10.044660	 14.380310	-30.977700	-3.264715	 9.401619	 6.437017	 35.671460	-0.771858	 2.830251	 35.756010	-7.813440	-2.350882	 35.473990	 5.254307
-7.104806	-19.890900	-0.103992	-49.502980	 9.462245	-0.782567	 3.974082	-35.755050	 174.263600	-1.981020	-56.605330	-0.947197	 9.058314	 89.006530	-9.850523	-2.374250	 30.775350	-0.051036	 0.827852	-37.411980	-176.956800	 0.581567	-60.666360	 3.373776	-165.352800	 89.032470	 167.472300	 2.398860	 24.343730	-0.085337	-0.887074	 14.562750	 1.638798	 0.254352	 7.178478	-2.214006	 1.797616	 3.806739	 0.059262	 143.803600	 89.671350	-52.916840	 46.639160	 59.758430	-82.655400	-13.648200	-2.714900	-19.051080	 2.403596	-2.238067	-5.350802	-3.812334	 37.924440	-2.927599	-2.450526	 36.184240	 0.754587	-1.378229	 35.397820	-2.634230	 1.535374	 1.817039	-3.445851	 1.757780	 6.871432	 3.437103	 93.795830	 85.482170	 171.042400	-46.246320	 76.952040	 59.468360	-7.123432	-10.021630	 14.330710	-31.000470	-3.265514	 9.398948	 6.437017	 35.671460	-0.771858	 2.830251	 35.756010	-7.813440	-2.350882	 35.473990	 5.254307
-7.111310	-19.895020	-0.103086	-48.545370	 9.528694	-0.607234	 3.686422	-35.498740	 174.133200	-1.449468	-56.225490	-0.697209	 10.636050	 89.208950	-11.283020	-2.374701	 30.694650	-0.049230	 0.360891	-36.889210	-177.163400	 1.024434	-60.283970	 3.428296	-169.819900	 88.747120	 172.010700	 2.399505	 24.097460	-0.090410	-1.056402	 14.205360	 1.465503	 0.079252	 7.208416	-2.255695	 1.704774	 3.850310	 0.055551	 142.199800	 89.679790	-51.440740	 48.944080	 59.294570	-84.543570	-12.668410	-2.850384	-19.575640	 2.666081	-2.230503	-5.350393	-3.812334	 37.924440	-2.927599	-2.450526	 36.184240	 0.754587	-1.378229	 35.397820	-2.634230	 1.394381	 1.792925	-3.485637	 1.723532	 6.979292	 3.355541	 93.873660	 85.548690	 170.988100	-47.886860	 76.714150	 60.568180	-7.837113	-10.125780	 14.410410	-31.152280	-3.265501	 9.396142	 6.437017	 35.671460	-0.771858	 2.830251	 35.756010	-7.813440	-2.350882	 35.473990	 5.254307
-7.117467	-19.899010	-0.103341	-47.834870	 9.465330	-0.518239	 3.579548	-35.059350	 174.050700	-0.924417	-56.045150	-0.343845	 15.928000	 89.517050	-16.355720	-2.374743	 30.687480	-0.049065	-0.096686	-36.364820	-177.221500	 1.424334	-60.075440	 3.453017	-172.310800	 88.510100	 174.538700	 2.399920	 23.927140	-0.093910	-1.034928	 13.938800	 1.576485	 0.061671	 7.276841	-2.276954	 1.621648	 3.940257	 0.051567	 135.906300	 89.653950	-45.185830	 51.172470	 58.970790	-86.288480	-11.945750	-2.891100	-19.560200	 2.790287	-2.233186	-5.349316	-3.812334	 37.924440	-2.927599	-2.450526	 36.184240	 0.754587	-1.378229	 35.397820	-2.634230	 1.286659	 1.729830	-3.546061	 1.647229	 7.212217	 3.013086	 93.823150	 85.566150	 171.129500	-50.367670	 76.059050	 62.944740	-8.281462	-10.195080	 14.724980	-30.797690	-3.263952	 9.407009	 6.437017	 35.671460	-0.771858	 2.830251	 35.756010	-7.813440	-2.350882	 35.473990	 5.254307
-7.123796	-19.902500	-0.104566	-47.053790	 9.359624	-0.328375	 3.445143	-34.831080	 173.924300	-0.396132	-56.120980	-0.006103	 35.970040	 89.799230	-36.182090	-2.370911	 31.360770	-0.064178	-0.508106	-35.794580	-177.419600	 2.060880	-60.052820	 3.729516	-173.718100	 88.283550	 176.112200	 2.400410	 23.723170	-0.098088	-1.005537	 13.717370	 1.653685	 0.052849	 7.383863	-2.327796	 1.539607	 4.069223	 0.047224	 124.567100	 89.570670	-33.883740	 53.323970	 58.358530	-87.395250	-10.505380	-2.965175	-19.129960	 3.136276	-2.241881	-5.345757	-3.812334	 37.924440	-2.927599	-2.450526	 36.184240	 0.754587	-1.378229	 35.397820	-2.634230	 1.182727	 1.738639	-3.648107	 1.563822	 7.448144	 2.645735	 93.688840	 85.540910	 171.380600	-52.318740	 75.342290	 65.120950	-8.313502	-10.331070	 15.308150	-30.192770	-3.259115	 9.424731	 6.437017	 35.671460	-0.771858	 2.830251	 35.756010	-7.813440	-2.350882	 35.473990	 5.254307
-7.129267	-19.905280	-0.106183	-46.226930	 9.303035	-0.073301	 3.218106	-34.751440	 173.680400	 0.069277	-56.400200	 0.219424	 133.675200	 89.853290	-133.745700	-2.368973	 31.685380	-0.071519	-0.892970	-35.280190	-177.697400	 2.852335	-60.167180	 4.165488	-174.723900	 88.071050	 177.359300	 2.400259	 23.787690	-0.096767	-1.033722	 13.520860	 1.595824	-0.015940	 7.466964	-2.416076	 1.418071	 4.156571	 0.042413	 116.998600	 89.476230	-26.360320	 55.097550	 57.940780	-87.841210	-8.922074	-3.094895	-18.544160	 3.720505	-2.252617	-5.340150	-3.812334	 37.924440	-2.927599	-2.450526	 36.184240	 0.754587	-1.378229	 35.397820	-2.634230	 1.037941	 1.795087	-3.708401	 1.462355	 7.552653	 2.403328	 93.555450	 85.498070	 171.603600	-53.434120	 74.704920	 66.796420	-8.106401	-10.587830	 16.070980	-29.664530	-3.253680	 9.444942	 6.437017	 35.671460	-0.771858	 2.830251	 35.756010	-7.813440	-2.350882	 35.473990	 5.254307
-7.133562	-19.907700	-0.107714	-45.524460	 9.252243	 0.056194	 3.034207	-34.740400	 173.494500	 0.225834	-56.728240	 0.218793	 167.264700	 89.590740	-167.344500	-2.366818	 32.038290	-0.079545	-1.207845	-34.875140	-177.815900	 3.671985	-60.351650	 4.673697	-175.429700	 87.838610	 178.338100	 2.399701	 24.013540	-0.092133	-1.048486	 13.361240	 1.614678	-0.090699	 7.513865	-2.450729	 1.258987	 4.183087	 0.037362	 113.869300	 89.417180	-23.244170	 56.668110	 57.777680	-88.100030	-7.799662	-3.127056	-17.801620	 4.088932	-2.272012	-5.333771	-3.812334	 37.924440	-2.927599	-2.450526	 36.184240	 0.754587	-1.378229	 35.397820	-2.634230	 0.857303	 1.885945	-3.648892	 1.344229	 7.499177	 2.090134	 93.448190	 85.471040	 171.798000	-54.221070	 74.140370	 68.423740	-7.666821	-10.830390	 16.847290	-29.126660	-3.248757	 9.460947	 6.437017	 35.671460	-0.771858	 2.830251	 35.756010	-7.813440	-2.350882	 35.473990	 5.254307
-7.136931	-19.910370	-0.108288	-44.994010	 9.197108	 0.156322	 2.896853	-34.620410	 173.422100	 0.303575	-56.983550	 0.178863	 174.007800	 89.295560	-174.123900	-2.365830	 32.194690	-0.083120	-1.403967	-34.488050	-177.850100	 4.345136	-60.517170	 5.137677	-175.857500	 87.658740	 179.010100	 2.399177	 24.220150	-0.087883	-0.971969	 13.234770	 1.591205	-0.098641	 7.517978	-2.450718	 1.110532	 4.157806	 0.033204	 113.585300	 89.403240	-22.930400	 58.073240	 57.786410	-88.168720	-6.414125	-3.239350	-16.758810	 4.887119	-2.301818	-5.320947	-3.812334	 37.924440	-2.927599	-2.450526	 36.184240	 0.754587	-1.378229	 35.397820	-2.634230	 0.724800	 2.031124	-3.505438	 1.208994	 7.288780	 1.841501	 93.402150	 85.502030	 171.949900	-54.721930	 73.610560	 69.697640	-7.271066	-11.042570	 17.562640	-28.643050	-3.243399	 9.475250	 6.437017	 35.671460	-0.771858	 2.830251	 35.756010	-7.813440	-2.350882	 35.473990	 5.254307
